<mxfile host="app.diagrams.net" modified="2023-07-01T03:15:18.853Z" agent="Mozilla/5.0 (Windows NT 10.0; Win64; x64) AppleWebKit/537.36 (KHTML, like Gecko) Chrome/115.0.0.0 Safari/537.36" version="21.5.1" etag="rbinXeZ2kYCY7ML70I3m" type="github">
  <diagram name="Page-1" id="IDq0uvd_G6Vzk7kpAJqj">
    <mxGraphModel>
      <root>
        <mxCell id="0" />
        <mxCell id="1" parent="0" />
      </root>
    </mxGraphModel>
  </diagram>
</mxfile>
